<svg xmlns="http://www.w3.org/2000/svg" viewBox="0 0 512 512">
  <defs>
    <linearGradient id="gradient" x1="0%" y1="0%" x2="100%" y2="100%">
      <stop offset="0%" stop-color="#7289da" />
      <stop offset="100%" stop-color="#5f73bc" />
    </linearGradient>
  </defs>
  <rect width="512" height="512" rx="50" fill="#36393f" />
  <path d="M384 348.2L271.2 256l112.8-92.2c4.3-3.5 5.3-9.7 2.4-14.5s-8.9-6.9-14.2-4.7L120 208c-5.3 2.2-8.7 7.4-8.7 13.1 0 5.8 3.4 11 8.7 13.2l252.2 103.5c5.3 2.2 11.3 0.1 14.2-4.7s1.9-11-2.4-14.5z" fill="url(#gradient)" />
  <path d="M256 512c141.4 0 256-114.6 256-256S397.4 0 256 0S0 114.6 0 256S114.6 512 256 512zM0 256a256 256 0 1 1 512 0A256 256 0 1 1 0 256z" fill="none" stroke="#7289da" stroke-width="20" />
</svg>

